<?xml version="1.0" encoding="UTF-8"?>
<svg id="Colder" xmlns="http://www.w3.org/2000/svg" viewBox="0 0 64.12 64.12">
  <defs>
    <style>
      .cls-1 {
        fill: #fff;
      }
    </style>
  </defs>
  <path class="cls-1" d="M21.52,28.93v-1.08l-.71.6c-.42.36-1.05.3-1.4-.12-.35-.42-.3-1.05.12-1.4l1.99-1.68v-2.57l-2.22,1.29-.45,2.56c-.09.54-.61.9-1.15.81-.54-.1-.9-.61-.81-1.15l.16-.91-.93.54c-.47.28-1.08.12-1.36-.36s-.12-1.08.36-1.36l.93-.54-.87-.31c-.52-.19-.79-.76-.6-1.27s.76-.79,1.27-.6l2.45.88,2.24-1.3-2.24-1.3-2.45.88c-.51.19-1.09-.08-1.27-.6-.19-.52.08-1.09.6-1.27l.87-.31-.93-.54c-.48-.28-.64-.88-.36-1.36.28-.47.89-.64,1.36-.36l.93.54-.16-.91c-.09-.54.27-1.06.81-1.15.54-.09,1.06.27,1.15.81l.45,2.56,2.22,1.29v-2.57l-1.99-1.68c-.42-.35-.47-.98-.12-1.4.35-.42.98-.47,1.4-.12l.71.6v-1.08c0-.55.45-1,1-1s1,.45,1,1v1.08l.71-.6c.42-.36,1.05-.3,1.4.12.35.42.3,1.05-.12,1.4l-1.99,1.68v2.57l2.22-1.29.45-2.56c.1-.54.61-.9,1.15-.81.39.07.67.35.78.71v.64l-.13.72.13-.07v3.6l-1.38-.49-2.24,1.3,2.24,1.3,1.38-.49v3.6l-.13-.07.13.72v.64c-.1.35-.39.64-.78.71-.54.09-1.06-.27-1.15-.81l-.45-2.56-2.22-1.29v2.57l1.99,1.68c.42.35.47.98.12,1.4-.35.42-.98.48-1.4.12l-.71-.6v1.08c0,.55-.45,1-1,1s-1-.45-1-1ZM49.61,45.65c0,7.27-5.91,13.18-13.18,13.18s-13.18-5.91-13.18-13.18c0-4.66,2.44-8.92,6.41-11.3V12.12c0-3.76,3.06-6.83,6.83-6.83s6.83,3.06,6.83,6.83v1.2h3.47c.72,0,1.3.58,1.3,1.3s-.58,1.3-1.3,1.3h-3.47v4.3h3.47c.72,0,1.3.58,1.3,1.3s-.58,1.3-1.3,1.3h-3.47v4.3h3.47c.72,0,1.3.58,1.3,1.3s-.58,1.3-1.3,1.3h-3.47v4.69c3.91,2.39,6.3,6.63,6.3,11.24ZM47.01,45.65c0-3.92-2.15-7.5-5.61-9.34l-.69-.37V12.12c0-2.33-1.9-4.23-4.23-4.23s-4.23,1.9-4.23,4.23v23.77l-.7.36c-3.52,1.83-5.71,5.43-5.71,9.39,0,5.83,4.75,10.58,10.58,10.58s10.58-4.75,10.58-10.58ZM43.28,45.94c0,3.78-3.07,6.85-6.85,6.85s-6.85-3.07-6.85-6.85c0-3.21,2.21-5.9,5.2-6.64v-9.52c0-.92.74-1.66,1.66-1.66s1.66.74,1.66,1.66v9.52c2.98.74,5.2,3.43,5.2,6.64ZM36.43,44.03c0-1.24-1.01-2.25-2.25-2.25s-2.25,1.01-2.25,2.25,1.01,2.25,2.25,2.25,2.25-1.01,2.25-2.25Z"/>
</svg>