<?xml version="1.0" encoding="UTF-8"?>
<svg id="_10d" data-name="10d" xmlns="http://www.w3.org/2000/svg" viewBox="0 0 64.12 64.12">
  <defs>
    <style>
      .cls-1 {
        fill: #1a1818;
      }
    </style>
  </defs>
  <path class="cls-1" d="M20.15,52.44c0,1.16-.94,2.11-2.11,2.11s-2.11-.94-2.11-2.11,2.11-3.41,2.11-3.41c0,0,2.11,2.25,2.11,3.41ZM25.7,49.03s-2.11,2.25-2.11,3.41.94,2.11,2.11,2.11,2.11-.94,2.11-2.11-2.11-3.41-2.11-3.41ZM33.36,49.03s-2.11,2.25-2.11,3.41.94,2.11,2.11,2.11,2.11-.94,2.11-2.11-2.11-3.41-2.11-3.41ZM42.49,15.84v-4.97c0-.72-.58-1.3-1.3-1.3s-1.3.58-1.3,1.3v4.97c0,.72.58,1.3,1.3,1.3s1.3-.58,1.3-1.3ZM58.78,27.16c0-.72-.58-1.3-1.3-1.3h-4.97c-.72,0-1.3.58-1.3,1.3s.58,1.3,1.3,1.3h4.97c.72,0,1.3-.58,1.3-1.3ZM52.71,39.98c-.33,0-.67-.13-.92-.38l-3.51-3.51c-.51-.51-.51-1.33,0-1.84.51-.51,1.33-.51,1.84,0l3.51,3.51c.51.51.51,1.33,0,1.84-.25.25-.59.38-.92.38ZM33.18,20.45c-.33,0-.67-.13-.92-.38l-3.51-3.51c-.51-.51-.51-1.33,0-1.84.51-.51,1.33-.51,1.84,0l3.51,3.51c.51.51.51,1.33,0,1.84-.25.25-.59.38-.92.38ZM50.11,20.07l3.51-3.51c.51-.51.51-1.33,0-1.84s-1.33-.51-1.84,0l-3.51,3.51c-.51.51-.51,1.33,0,1.84.25.25.59.38.92.38s.67-.13.92-.38ZM34.44,22.39c.73,0,1.44.09,2.12.25,1.18-1.21,2.82-1.96,4.63-1.96,3.57,0,6.47,2.9,6.47,6.47,0,2.53-1.47,4.73-3.59,5.79.76.53,1.42,1.16,1.98,1.86,2.53-1.61,4.21-4.43,4.21-7.65,0-5-4.07-9.07-9.07-9.07-3.28,0-6.15,1.75-7.74,4.37.33-.04.66-.06.99-.06ZM38.8,47.8H14.07c-4.81,0-8.72-3.91-8.72-8.72,0-4.24,3-7.78,7.05-8.56.04-5.82,4.78-10.54,10.6-10.54,3.66,0,6.97,1.84,8.91,4.87.81-.3,1.67-.46,2.53-.46,4,0,7.26,3.26,7.26,7.26,0,.72-.11,1.43-.32,2.11,2.76,1.05,4.68,3.72,4.68,6.78,0,4-3.25,7.26-7.26,7.26ZM22.99,22.59c-4.41,0-8,3.59-8,8,0,.31.02.62.06.93.04.36-.07.72-.3.99-.23.27-.57.44-.93.45-3.29.14-5.87,2.82-5.87,6.11s2.75,6.12,6.12,6.12h24.73c2.57,0,4.66-2.09,4.66-4.66,0-2.33-1.74-4.31-4.04-4.61-.43-.06-.81-.33-1-.72-.19-.39-.17-.85.04-1.23.42-.71.64-1.52.64-2.34,0-2.57-2.09-4.66-4.66-4.66-.84,0-1.67.23-2.4.67-.31.19-.69.24-1.04.13s-.64-.35-.8-.68c-1.35-2.8-4.11-4.54-7.2-4.54ZM18.86,30.8c0-2.4,1.95-4.35,4.35-4.35.72,0,1.3-.58,1.3-1.3s-.58-1.3-1.3-1.3c-3.83,0-6.95,3.12-6.95,6.95,0,.72.58,1.3,1.3,1.3s1.3-.58,1.3-1.3Z"/>
</svg>