<?xml version="1.0" encoding="UTF-8"?>
<svg id="_50d" data-name="50d" xmlns="http://www.w3.org/2000/svg" viewBox="0 0 64.12 64.12">
  <defs>
    <style>
      .cls-1 {
        fill: #fff;
      }
    </style>
  </defs>
  <path class="cls-1" d="M43.85,48.85h-22.68c-.72,0-1.3-.58-1.3-1.3s.58-1.3,1.3-1.3h22.68c.72,0,1.3.58,1.3,1.3s-.58,1.3-1.3,1.3ZM51.74,42.65H14.86c-.72,0-1.3-.58-1.3-1.3s.58-1.3,1.3-1.3h36.88c.72,0,1.3.58,1.3,1.3s-.58,1.3-1.3,1.3ZM43.55,36.46H6.62c-.72,0-1.3-.58-1.3-1.3s.58-1.3,1.3-1.3h36.92c.72,0,1.3.58,1.3,1.3s-.58,1.3-1.3,1.3ZM57.5,30.26H21.17c-.72,0-1.3-.58-1.3-1.3s.58-1.3,1.3-1.3h36.33c.72,0,1.3.58,1.3,1.3s-.58,1.3-1.3,1.3ZM41.05,24.07H9.72c-.72,0-1.3-.58-1.3-1.3s.58-1.3,1.3-1.3h31.33c.72,0,1.3.58,1.3,1.3s-.58,1.3-1.3,1.3ZM37.62,17.88h-16.45c-.72,0-1.3-.58-1.3-1.3s.58-1.3,1.3-1.3h16.45c.72,0,1.3.58,1.3,1.3s-.58,1.3-1.3,1.3Z"/>
</svg>