<?xml version="1.0" encoding="UTF-8"?>
<svg id="_11d" data-name="11d" xmlns="http://www.w3.org/2000/svg" viewBox="0 0 64.12 64.12">
  <defs>
    <style>
      .cls-1 {
        fill: #fff;
      }
    </style>
  </defs>
  <path class="cls-1" d="M58.61,27.54c0,2.64-1.49,4.93-3.67,6.09-.17-.88-.45-1.72-.84-2.52,1.15-.77,1.91-2.09,1.91-3.57,0-2.15-1.61-3.98-3.74-4.26l-1.94-.25.98-1.69c.38-.66.59-1.41.59-2.16,0-2.37-1.93-4.3-4.3-4.3-.78,0-1.54.21-2.22.62l-1.22.74-.62-1.29c-1.26-2.6-3.83-4.22-6.7-4.22-1.24,0-2.4.31-3.43.84-.88-.53-1.82-.95-2.79-1.28,1.71-1.35,3.87-2.17,6.21-2.17,3.45,0,6.57,1.72,8.41,4.56.75-.28,1.55-.42,2.35-.42,3.81,0,6.9,3.1,6.9,6.9,0,.66-.1,1.31-.28,1.94,2.59,1.01,4.39,3.54,4.39,6.42ZM21.02,24.06c0-2.97,2.42-5.38,5.38-5.38.72,0,1.3-.58,1.3-1.3s-.58-1.3-1.3-1.3c-4.4,0-7.98,3.58-7.98,7.98,0,.72.58,1.3,1.3,1.3s1.3-.58,1.3-1.3ZM53.22,35.59c0,4.6-3.75,8.35-8.35,8.35h-5.22l2.01-2.6h3.2c3.17,0,5.75-2.58,5.75-5.75,0-2.87-2.15-5.32-5-5.69-.43-.06-.81-.33-1-.72-.19-.39-.18-.85.04-1.23.51-.88.79-1.88.79-2.89,0-3.17-2.58-5.75-5.75-5.75-1.04,0-2.06.29-2.96.83-.31.19-.69.24-1.04.13-.35-.1-.64-.35-.8-.68-1.64-3.39-4.99-5.5-8.74-5.5-5.35,0-9.71,4.36-9.71,9.71,0,.35.02.71.07,1.13.04.36-.07.72-.3.99-.23.28-.57.44-.93.46-4.02.17-7.17,3.45-7.17,7.47s3.36,7.49,7.49,7.49h4.73l-.75,2.6h-3.98c-5.56,0-10.09-4.53-10.09-10.09,0-4.97,3.57-9.1,8.34-9.93,0-.04,0-.08,0-.12,0-6.79,5.52-12.31,12.31-12.31,4.32,0,8.21,2.2,10.45,5.82.98-.4,2.03-.6,3.1-.6,4.6,0,8.35,3.75,8.35,8.35,0,.9-.15,1.8-.43,2.65,3.28,1.15,5.6,4.28,5.6,7.88ZM26.97,56c-.19,0-.38-.04-.55-.12-.55-.26-.85-.87-.71-1.46l2.25-9.84h-4.4c-.41,0-.79-.19-1.04-.52-.25-.33-.32-.75-.21-1.14l3.35-11.55c.16-.56.67-.94,1.25-.94h7.21c.4,0,.77.18,1.02.5.25.31.34.72.24,1.11l-1.42,5.91h5c.5,0,.95.28,1.17.73.22.45.16.98-.14,1.37l-11.99,15.47c-.25.33-.64.5-1.03.5ZM25.28,41.97h4.29c.4,0,.77.18,1.02.49.25.31.34.71.25,1.1l-1.3,5.69,6.76-8.72h-3.99c-.4,0-.77-.18-1.02-.5-.25-.31-.34-.72-.24-1.11l1.42-5.91h-4.58l-2.6,8.95Z"/>
</svg>