<?xml version="1.0" encoding="UTF-8"?>
<svg id="_9d" data-name="9d" xmlns="http://www.w3.org/2000/svg" viewBox="0 0 64.12 64.12">
  <defs>
    <style>
      .cls-1 {
        fill: #fff;
      }
    </style>
  </defs>
  <path class="cls-1" d="M20.91,46.72v7.51c0,.72-.58,1.3-1.3,1.3s-1.3-.58-1.3-1.3v-7.51h2.6ZM24.52,46.72v3.02c0,.72.58,1.3,1.3,1.3s1.3-.58,1.3-1.3v-3.02h-2.6ZM43.15,46.72v7.51c0,.72.58,1.3,1.3,1.3s1.3-.58,1.3-1.3v-7.51h-2.6ZM30.73,46.72v7.51c0,.72.58,1.3,1.3,1.3s1.3-.58,1.3-1.3v-7.51h-2.6ZM36.94,46.72v3.02c0,.72.58,1.3,1.3,1.3s1.3-.58,1.3-1.3v-3.02h-2.6ZM58.81,35.6c0-4.04-2.64-7.56-6.36-8.79.35-.99.54-2.04.54-3.09,0-5.1-4.15-9.25-9.25-9.25-1.22,0-2.43.25-3.56.72-2.48-4.11-6.86-6.61-11.72-6.61-7.57,0-13.72,6.16-13.72,13.72,0,.09,0,.18,0,.28-5.37.86-9.41,5.49-9.41,11.06,0,6.18,5.03,11.21,11.21,11.21h33.03c5.1,0,9.25-4.15,9.25-9.25ZM38.45,17.48l.62,1.29,1.22-.74c1.04-.63,2.23-.96,3.43-.96,3.67,0,6.66,2.99,6.66,6.66,0,1.17-.31,2.32-.91,3.34l-.99,1.69,1.94.25c3.3.43,5.78,3.27,5.78,6.59,0,3.67-2.99,6.65-6.66,6.65H16.53c-4.75,0-8.62-3.87-8.62-8.62s3.62-8.4,8.25-8.59l1.4-.06-.16-1.39c-.05-.47-.08-.9-.08-1.29,0-6.13,4.99-11.12,11.12-11.12,4.3,0,8.13,2.42,10.01,6.3ZM22.2,22.31c0-3.44,2.8-6.24,6.24-6.24.72,0,1.3-.58,1.3-1.3s-.58-1.3-1.3-1.3c-4.87,0-8.84,3.97-8.84,8.84,0,.72.58,1.3,1.3,1.3s1.3-.58,1.3-1.3Z"/>
</svg>