<?xml version="1.0" encoding="UTF-8"?>
<svg id="_1d" data-name="1d" xmlns="http://www.w3.org/2000/svg" viewBox="0 0 64.12 64.12">
  <defs>
    <style>
      .cls-1 {
        fill: #fff;
      }
    </style>
  </defs>
  <path class="cls-1" d="M32.06,58.76c-.72,0-1.3-.58-1.3-1.3v-7.75c0-.72.58-1.3,1.3-1.3s1.3.58,1.3,1.3v7.75c0,.72-.58,1.3-1.3,1.3ZM50.02,51.32c-.33,0-.67-.13-.92-.38l-5.48-5.48c-.51-.51-.51-1.33,0-1.84s1.33-.51,1.84,0l5.48,5.48c.51.51.51,1.33,0,1.84-.25.25-.59.38-.92.38ZM14.1,51.32c-.33,0-.67-.13-.92-.38-.51-.51-.51-1.33,0-1.84l5.48-5.48c.51-.51,1.33-.51,1.84,0s.51,1.33,0,1.84l-5.48,5.48c-.25.25-.59.38-.92.38ZM32.06,45.48c-7.4,0-13.42-6.02-13.42-13.42s6.02-13.42,13.42-13.42,13.42,6.02,13.42,13.42-6.02,13.42-13.42,13.42ZM32.06,21.24c-5.97,0-10.82,4.85-10.82,10.82s4.85,10.82,10.82,10.82,10.82-4.85,10.82-10.82-4.85-10.82-10.82-10.82ZM57.46,33.36h-7.75c-.72,0-1.3-.58-1.3-1.3s.58-1.3,1.3-1.3h7.75c.72,0,1.3.58,1.3,1.3s-.58,1.3-1.3,1.3ZM25.39,33.36c-.72,0-1.3-.58-1.3-1.3,0-4.4,3.58-7.97,7.97-7.97.72,0,1.3.58,1.3,1.3s-.58,1.3-1.3,1.3c-2.96,0-5.37,2.41-5.37,5.37,0,.72-.58,1.3-1.3,1.3ZM14.4,33.36h-7.75c-.72,0-1.3-.58-1.3-1.3s.58-1.3,1.3-1.3h7.75c.72,0,1.3.58,1.3,1.3s-.58,1.3-1.3,1.3ZM44.55,20.88c-.33,0-.67-.13-.92-.38-.51-.51-.51-1.33,0-1.84l5.48-5.48c.51-.51,1.33-.51,1.84,0s.51,1.33,0,1.84l-5.48,5.48c-.25.25-.59.38-.92.38ZM19.58,20.88c-.33,0-.67-.13-.92-.38l-5.48-5.48c-.51-.51-.51-1.33,0-1.84s1.33-.51,1.84,0l5.48,5.48c.51.51.51,1.33,0,1.84-.25.25-.59.38-.92.38ZM32.06,15.7c-.72,0-1.3-.58-1.3-1.3v-7.75c0-.72.58-1.3,1.3-1.3s1.3.58,1.3,1.3v7.75c0,.72-.58,1.3-1.3,1.3Z"/>
</svg>