<?xml version="1.0" encoding="UTF-8"?>
<svg id="Layer_1" data-name="Layer 1" xmlns="http://www.w3.org/2000/svg" viewBox="0 0 152 18">
  <path d="M1.07,16.5v-3.15c0-1,0-2.18-.01-3.53s-.03-2.85-.06-4.48c.35.02.73.02,1.13.02.35,0,.77,0,1.24.01.47,0,.99,0,1.56-.01-.02.19-.02.37-.02.56-.02.17-.02.36-.02.58v.72c.38-.68.91-1.24,1.57-1.68s1.41-.66,2.24-.66c.92,0,1.65.21,2.18.63.53.42.91.95,1.14,1.6.37-.54.86-.98,1.48-1.33.62-.35,1.32-.52,2.12-.52.65,0,1.19.11,1.62.34.43.22.78.52,1.04.88.26.36.45.78.58,1.26.12.48.19.97.21,1.48.03.88.05,1.79.05,2.73v2.59c0,.93,0,1.83-.02,2.71-.38-.02-.82-.02-1.32-.02h-3.56v-2.15c0-.65,0-1.36-.01-2.14,0-.78-.03-1.56-.06-2.35-.02-.36-.08-.64-.18-.85-.11-.21-.29-.31-.53-.31-.31,0-.52.12-.63.36-.12.24-.19.58-.22,1.01-.03.6-.04,1.22-.03,1.86s.01,1.23.01,1.77c0,.62,0,1.23.02,1.83h-1.45c-.45,0-.97,0-1.58.01-.61,0-1.26.01-1.95.01.03-.65.05-1.31.07-1.99.02-.59.03-1.22.03-1.91s0-1.36-.03-2.03c-.03-.8-.29-1.2-.78-1.2-.31,0-.52.14-.65.41-.12.27-.2.61-.23,1.01-.03.65-.05,1.32-.05,2.01s0,1.34.02,1.92c.01.68.03,1.35.05,2.01H1.07ZM26.26,17.18c-1.2,0-2.21-.16-3.02-.47-.82-.32-1.47-.75-1.96-1.31-.49-.56-.85-1.22-1.06-1.98-.22-.76-.32-1.59-.32-2.49s.13-1.71.4-2.46c.27-.74.67-1.38,1.19-1.91.52-.53,1.17-.95,1.94-1.24.77-.29,1.65-.44,2.63-.44,1.22,0,2.24.18,3.07.53.83.36,1.49.85,1.99,1.48.49.63.83,1.39,1.03,2.28.19.89.26,1.87.2,2.95h-1.89c-.63,0-1.4,0-2.3.01s-1.94.02-3.13.03c.06.69.19,1.19.38,1.47.19.29.47.43.82.43.26,0,.48-.09.66-.27s.3-.49.38-.94c.4.02.85.03,1.36.05.45.02.98.03,1.6.05.62.02,1.34.04,2.16.07-.4,1.41-1.14,2.45-2.23,3.13-1.09.68-2.38,1.02-3.89,1.02ZM26.17,7.89c-.37,0-.65.16-.84.47-.19.32-.31.89-.36,1.73.66,0,1.42-.02,2.29-.07-.02-.69-.1-1.22-.27-1.59-.16-.36-.44-.54-.82-.54ZM40.23,17.38c-.25-.83-.46-1.57-.65-2.2-.18-.63-.35-1.17-.51-1.62-.2.31-.37.59-.52.85-.15.25-.28.48-.4.68v1.04c0,.15,0,.28.02.37-.79-.03-1.48-.05-2.09-.05h-1.56c-.51,0-.95,0-1.32.02.03-2.83.05-5.21.05-7.17v-4.76c0-1.42,0-2.58-.02-3.47,1.71.05,2.96.07,3.76.07.48,0,.88,0,1.2-.02-.02.94-.03,1.81-.03,2.61,0,.8-.01,1.53-.01,2.21v3.68c.26-.76.49-1.43.67-2.03.18-.59.35-1.1.49-1.52.15-.49.29-.93.42-1.3.88.05,1.66.08,2.34.1.68.02,1.27.04,1.77.06.57.02,1.07.03,1.5.05-.65,1.08-1.19,2.02-1.64,2.83-.45.8-.81,1.47-1.09,1.99.45,1.16.84,2.19,1.19,3.09.35.9.65,1.68.91,2.33l.79,1.97c-.97.03-1.79.05-2.45.06s-1.2.03-1.62.06c-.49.03-.89.05-1.2.07ZM61.28,9.16c0,1.07-.2,2.08-.6,3.04-.4.96-.98,1.82-1.74,2.59-.76.75-1.62,1.33-2.57,1.74-.95.4-1.96.6-3.03.6s-2.08-.2-3.04-.6c-.97-.4-1.82-.98-2.58-1.74s-1.34-1.62-1.74-2.59c-.4-.96-.6-1.98-.6-3.04s.2-2.07.6-3.03c.4-.96.98-1.82,1.74-2.58s1.61-1.33,2.57-1.74c.96-.4,1.97-.6,3.03-.6s2.07.2,3.03.6,1.82.98,2.59,1.74c.76.76,1.34,1.62,1.74,2.58.4.96.6,1.97.6,3.03ZM60.32,6.86h-5.33l-1.67-5.09-1.65,5.09h-5.33l4.31,3.15-1.66,5.13,4.33-3.17,4.35,3.17-1.66-5.13,4.31-3.15ZM72.47,17.5c-.17-2.32-.33-4.35-.47-6.09-.15-1.74-.28-3.22-.4-4.42-.22,1.61-.39,3-.53,4.18-.14,1.18-.25,2.17-.35,2.95-.11.93-.19,1.71-.25,2.34-1.32-.06-2.43-.1-3.31-.13-.89-.02-1.6-.05-2.14-.08-.63-.02-1.12-.03-1.48-.05-.11-1.48-.22-2.93-.32-4.33-.11-1.41-.22-2.75-.33-4.04-.12-1.29-.22-2.5-.32-3.65s-.2-2.18-.29-3.1c.66,0,1.3,0,1.9-.01.61,0,1.15-.02,1.63-.03.55-.02,1.07-.02,1.55-.02.03,2.1.08,4.05.14,5.85.06,1.8.12,3.35.18,4.64.28-1.95.5-3.54.67-4.77.17-1.24.31-2.22.42-2.94.12-.85.22-1.48.28-1.9.97,0,1.79,0,2.46.01s1.21.01,1.63.01c.49.02.89.02,1.2.02.26,2.44.51,4.56.74,6.36.23,1.8.43,3.28.6,4.44.08-2.46.13-4.47.17-6.03.04-1.57.07-2.81.1-3.74.02-1.08.02-1.9.02-2.46.88.03,1.64.05,2.27.07.64.02,1.16.02,1.56.02h1.18c-.25,2.96-.45,5.49-.6,7.59-.15,2.09-.28,3.82-.37,5.18-.11,1.59-.2,2.9-.28,3.91-2.42.11-4.23.18-5.45.21-.71.02-1.31.02-1.8.02ZM87.83,17.18c-1.2,0-2.21-.16-3.02-.47-.82-.32-1.47-.75-1.96-1.31-.49-.56-.85-1.22-1.06-1.98-.22-.76-.32-1.59-.32-2.49s.13-1.71.4-2.46c.27-.74.67-1.38,1.19-1.91.52-.53,1.17-.95,1.94-1.24.77-.29,1.65-.44,2.63-.44,1.22,0,2.24.18,3.07.53.83.36,1.49.85,1.99,1.48.49.63.83,1.39,1.03,2.28.19.89.26,1.87.2,2.95h-1.89c-.63,0-1.4,0-2.3.01s-1.94.02-3.13.03c.06.69.19,1.19.38,1.47.19.29.47.43.82.43.26,0,.48-.09.66-.27s.3-.49.38-.94c.4.02.85.03,1.36.05.45.02.98.03,1.6.05.62.02,1.34.04,2.16.07-.4,1.41-1.14,2.45-2.23,3.13-1.09.68-2.38,1.02-3.89,1.02ZM87.73,7.89c-.37,0-.65.16-.84.47-.19.32-.31.89-.36,1.73.66,0,1.42-.02,2.29-.07-.02-.69-.1-1.22-.27-1.59-.16-.36-.44-.54-.82-.54ZM98.45,17.25c-.6,0-1.15-.08-1.64-.23-.49-.15-.92-.38-1.28-.67s-.64-.65-.84-1.07c-.2-.42-.3-.89-.3-1.41,0-1.31.47-2.3,1.4-2.95.93-.66,2.38-.98,4.35-.96.17,0,.34,0,.51.01.17,0,.34.02.51.03v-.35c-.03-.56-.11-.95-.24-1.18-.13-.23-.33-.35-.59-.35-.29,0-.51.12-.66.36s-.23.58-.27,1.01c-.35,0-.76,0-1.22-.02-.4-.02-.88-.02-1.44-.02s-1.2-.02-1.9-.05c.03-.66.18-1.27.45-1.82.27-.55.64-1.02,1.12-1.41.48-.39,1.05-.7,1.73-.93.68-.22,1.45-.34,2.31-.34,1.03,0,1.9.12,2.62.36.72.24,1.3.59,1.74,1.05.45.46.78,1.03.99,1.69.21.66.34,1.42.37,2.27.01.86.03,1.71.03,2.52,0,.82,0,1.55-.01,2.2-.02.76-.03,1.47-.05,2.15-.32.02-.69.02-1.11.02-.35,0-.79,0-1.29.01s-1.07.01-1.69.01c.01-.14.03-.29.05-.46.02-.29.04-.7.07-1.23-.37.63-.9,1.08-1.58,1.34-.69.26-1.4.39-2.14.39ZM100.18,14.23c.18,0,.35-.03.5-.1.15-.07.27-.19.38-.36.11-.17.18-.39.23-.67.05-.28.07-.64.07-1.09v-.19c-.75.02-1.29.17-1.6.45s-.47.61-.47.98c0,.29.07.53.22.71.15.18.37.27.68.27ZM115.97,16.5c-1.28.28-2.4.42-3.37.42-1.35,0-2.42-.37-3.19-1.11s-1.17-1.96-1.2-3.66c-.02-.54-.02-1.08-.02-1.61v-1.61c-.22.02-.41.02-.59.02h-.87v-1.9c0-.49,0-.9-.02-1.2-.02-.36-.02-.63-.02-.81.26.02.52.02.77.02h.75c0-.45,0-.85.01-1.2,0-.36.01-.66.01-.93,0-.29,0-.56.02-.81.75.02,1.43.02,2.03.01s1.11-.01,1.52-.01c.49,0,.92,0,1.29-.02,0,.26,0,.55-.02.86-.02.26-.03.58-.03.95s-.01.77-.01,1.2h2.72c-.03.82-.05,1.48-.05,1.98v1.17c0,.32,0,.56.02.72l-2.7-.05c0,.39,0,.76.01,1.13s.02.73.03,1.09c.03.46.16.8.39,1.01.23.21.59.31,1.09.31.17,0,.34-.01.52-.03.18-.02.37-.05.59-.08.03.66.07,1.25.1,1.76.04.51.07.94.1,1.3.03.42.06.78.09,1.09ZM116.8,16.43c.01-1.36.03-2.85.05-4.47.01-1.39.03-3.01.03-4.85s0-3.84-.03-5.99h2.71c.61,0,1.32,0,2.14-.02,0,.46,0,.97-.02,1.53-.02.49-.03,1.07-.03,1.71,0,.65,0,1.37.01,2.15.35-.49.8-.89,1.33-1.19s1.14-.45,1.84-.45c1.09,0,1.94.37,2.53,1.11s.91,1.72.96,2.94c.03.93.05,1.88.06,2.87,0,.99.01,1.89.01,2.71,0,.96,0,1.88-.02,2.78-.38-.02-.83-.02-1.34-.02h-3.56c0-.74,0-1.51.02-2.29,0-.68,0-1.43.01-2.26,0-.83,0-1.64-.03-2.44,0-.76-.25-1.13-.76-1.13-.31,0-.52.1-.65.3-.12.2-.19.5-.21.9-.03.76-.05,1.49-.05,2.21v1.96c0,.68,0,1.32.02,1.92h-2.92c-.61,0-1.3,0-2.09.02ZM135.51,17.18c-1.2,0-2.21-.16-3.02-.47-.82-.32-1.47-.75-1.96-1.31-.49-.56-.85-1.22-1.06-1.98-.22-.76-.32-1.59-.32-2.49s.13-1.71.4-2.46c.27-.74.67-1.38,1.19-1.91.52-.53,1.17-.95,1.94-1.24.77-.29,1.65-.44,2.63-.44,1.22,0,2.24.18,3.07.53.83.36,1.49.85,1.99,1.48.49.63.83,1.39,1.03,2.28.19.89.26,1.87.2,2.95h-1.89c-.63,0-1.4,0-2.3.01s-1.94.02-3.13.03c.06.69.19,1.19.38,1.47.19.29.47.43.82.43.26,0,.48-.09.66-.27s.3-.49.38-.94c.4.02.85.03,1.36.05.45.02.98.03,1.6.05.62.02,1.34.04,2.16.07-.4,1.41-1.14,2.45-2.23,3.13-1.09.68-2.38,1.02-3.89,1.02ZM135.41,7.89c-.37,0-.65.16-.84.47-.19.32-.31.89-.36,1.73.66,0,1.42-.02,2.29-.07-.02-.69-.1-1.22-.27-1.59-.16-.36-.44-.54-.82-.54ZM142.5,16.9v-3.73c0-1.11,0-2.35-.01-3.72,0-1.37-.02-2.75-.03-4.16h2.17c.51,0,1.12,0,1.85-.02-.02.19-.02.38-.02.58-.02.17-.02.37-.02.61v.78c.18-.39.43-.74.74-1.05.31-.32.66-.58,1.05-.8.39-.22.82-.37,1.29-.46s.97-.11,1.49-.05c-.02.34-.03.74-.05,1.2-.02.4-.03.89-.05,1.47-.02.58-.03,1.25-.05,2.03-.69.02-1.26.08-1.7.2-.44.12-.79.31-1.04.57-.25.26-.43.61-.53,1.04-.1.43-.16.97-.17,1.62-.02.32-.02.71-.01,1.16,0,.45.01.87.01,1.27,0,.48,0,.96.02,1.44h-2.77c-.62,0-1.34,0-2.17.02Z"/>
</svg>