<?xml version="1.0" encoding="UTF-8"?>
<svg id="_3d" data-name="3d" xmlns="http://www.w3.org/2000/svg" viewBox="0 0 64.12 64.12">
  <defs>
    <style>
      .cls-1 {
        fill: #fff;
      }
    </style>
  </defs>
  <path class="cls-1" d="M20.88,28.94c-.72,0-1.3-.58-1.3-1.3,0-4.88,3.97-8.85,8.85-8.85.72,0,1.3.58,1.3,1.3s-.58,1.3-1.3,1.3c-3.45,0-6.25,2.81-6.25,6.25,0,.72-.58,1.3-1.3,1.3ZM58.86,40.96c0-4.05-2.64-7.57-6.38-8.8.35-.99.54-2.04.54-3.1,0-5.11-4.16-9.27-9.27-9.27-1.23,0-2.44.25-3.57.72-2.48-4.11-6.87-6.62-11.74-6.62-7.58,0-13.75,6.17-13.75,13.75,0,.09,0,.18,0,.28-5.38.86-9.43,5.49-9.43,11.08,0,6.19,5.04,11.23,11.23,11.23h33.09c5.11,0,9.27-4.16,9.27-9.27ZM38.47,22.81l.62,1.29,1.22-.74c1.04-.63,2.23-.96,3.44-.96,3.68,0,6.67,2.99,6.67,6.67,0,1.17-.31,2.33-.91,3.35l-.99,1.69,1.94.25c3.3.43,5.8,3.27,5.8,6.61,0,3.68-2.99,6.67-6.67,6.67H16.5c-4.76,0-8.63-3.87-8.63-8.63s3.63-8.42,8.27-8.62l1.4-.06-.16-1.39c-.05-.47-.08-.9-.08-1.29,0-6.15,5-11.15,11.15-11.15,4.31,0,8.15,2.42,10.03,6.31Z"/>
</svg>