<?xml version="1.0" encoding="UTF-8"?>
<svg id="Sunrise" xmlns="http://www.w3.org/2000/svg" viewBox="0 0 64.12 64.12">
  <defs>
    <style>
      .cls-1 {
        fill: #1a1818;
      }
    </style>
  </defs>
  <path class="cls-1" d="M57.39,38.25h-12.01c-.66-6.77-6.38-12.09-13.32-12.09s-12.66,5.31-13.32,12.09H6.73c-.72,0-1.3.58-1.3,1.3s.58,1.3,1.3,1.3h50.66c.72,0,1.3-.58,1.3-1.3s-.58-1.3-1.3-1.3ZM21.35,38.25c.64-5.34,5.2-9.48,10.71-9.48s10.06,4.15,10.71,9.48h-21.41ZM44.78,44.82c0,.72-.58,1.3-1.3,1.3h-22.85c-.72,0-1.3-.58-1.3-1.3s.58-1.3,1.3-1.3h22.85c.72,0,1.3.58,1.3,1.3ZM37.78,49.9c0,.72-.58,1.3-1.3,1.3h-8.84c-.72,0-1.3-.58-1.3-1.3s.58-1.3,1.3-1.3h8.84c.72,0,1.3.58,1.3,1.3ZM26.82,19.39c-.51-.51-.51-1.33,0-1.84l4.24-4.24c.51-.51,1.33-.51,1.84,0l4.24,4.24c.51.51.51,1.33,0,1.84-.25.25-.59.38-.92.38s-.67-.13-.92-.38l-1.94-1.94v5.43c0,.72-.58,1.3-1.3,1.3s-1.3-.58-1.3-1.3v-5.59l-2.1,2.1c-.51.51-1.33.51-1.84,0ZM47.89,31.73l7.16-2.9c.66-.27,1.42.05,1.69.72.27.67-.05,1.42-.72,1.69l-7.16,2.9c-.16.07-.33.1-.49.1-.51,0-1-.31-1.21-.81-.27-.67.05-1.42.72-1.69ZM42.49,27.02c-.55-.46-.63-1.28-.17-1.83l4.94-5.94c.46-.55,1.28-.63,1.83-.17.55.46.63,1.28.17,1.83l-4.94,5.94c-.26.31-.63.47-1,.47-.29,0-.59-.1-.83-.3ZM7.38,29.55c.27-.67,1.03-.99,1.69-.72l7.16,2.9c.67.27.99,1.03.72,1.69-.21.51-.69.81-1.21.81-.16,0-.33-.03-.49-.1l-7.16-2.9c-.67-.27-.99-1.03-.72-1.69ZM14.85,20.92c-.46-.55-.38-1.37.17-1.83.55-.46,1.37-.38,1.83.17l4.94,5.94c.46.55.38,1.37-.17,1.83-.24.2-.54.3-.83.3-.37,0-.74-.16-1-.47l-4.94-5.94Z"/>
</svg>