<?xml version="1.0" encoding="UTF-8"?>
<svg id="Hotter" xmlns="http://www.w3.org/2000/svg" viewBox="0 0 64.12 64.12">
  <defs>
    <style>
      .cls-1 {
        fill: #fff;
      }
    </style>
  </defs>
  <path class="cls-1" d="M25.69,17.47c-.39-.39-.39-1.02,0-1.41l1.64-1.64c.39-.39,1.02-.39,1.41,0s.39,1.02,0,1.41l-1.64,1.64c-.2.2-.45.29-.71.29s-.51-.1-.71-.29ZM22.25,16.05c.55,0,1-.45,1-1v-2.32c0-.55-.45-1-1-1s-1,.45-1,1v2.32c0,.55.45,1,1,1ZM25.69,24.35c-.39.39-.39,1.02,0,1.41l1.64,1.64c.2.2.45.29.71.29s.51-.1.71-.29c.39-.39.39-1.02,0-1.41l-1.64-1.64c-.39-.39-1.02-.39-1.41,0ZM27.12,20.91c0,.55.45,1,1,1h1.44v-2h-1.44c-.55,0-1,.45-1,1ZM23.25,26.78c0-.55-.45-1-1-1s-1,.45-1,1v2.32c0,.55.45,1,1,1s1-.45,1-1v-2.32ZM17.4,24.35l-1.64,1.64c-.39.39-.39,1.02,0,1.41.2.2.45.29.71.29s.51-.1.71-.29l1.64-1.64c.39-.39.39-1.02,0-1.41s-1.02-.39-1.41,0ZM22.25,24.82c-1.04,0-2.02-.41-2.76-1.14-1.52-1.52-1.52-4,0-5.52s4-1.52,5.52,0,1.52,4,0,5.52c-.74.74-1.72,1.14-2.76,1.14ZM23.6,22.26c.74-.74.74-1.95,0-2.7-.37-.37-.86-.56-1.35-.56s-.98.19-1.35.56c-.74.74-.74,1.95,0,2.7s1.98.72,2.7,0ZM17.4,17.47c.2.2.45.29.71.29s.51-.1.71-.29c.39-.39.39-1.02,0-1.41l-1.64-1.64c-.39-.39-1.02-.39-1.41,0s-.39,1.02,0,1.41l1.64,1.64ZM17.39,20.91c0-.55-.45-1-1-1h-2.32c-.55,0-1,.45-1,1s.45,1,1,1h2.32c.55,0,1-.45,1-1ZM51.05,45.65c0,7.27-5.91,13.18-13.18,13.18s-13.18-5.91-13.18-13.18c0-4.66,2.44-8.92,6.41-11.3V12.12c0-3.76,3.06-6.83,6.83-6.83s6.83,3.06,6.83,6.83v1.2h3.47c.72,0,1.3.58,1.3,1.3s-.58,1.3-1.3,1.3h-3.47v4.3h3.47c.72,0,1.3.58,1.3,1.3s-.58,1.3-1.3,1.3h-3.47v4.3h3.47c.72,0,1.3.58,1.3,1.3s-.58,1.3-1.3,1.3h-3.47v4.69c3.91,2.39,6.3,6.63,6.3,11.24ZM48.45,45.65c0-3.92-2.15-7.5-5.61-9.34l-.69-.37V12.12c0-2.33-1.9-4.23-4.23-4.23s-4.23,1.9-4.23,4.23v23.77l-.7.36c-3.52,1.83-5.71,5.43-5.71,9.39,0,5.83,4.75,10.58,10.58,10.58s10.58-4.75,10.58-10.58ZM44.72,45.94c0,3.78-3.07,6.85-6.85,6.85s-6.85-3.07-6.85-6.85c0-3.21,2.21-5.9,5.2-6.64V13.56c0-.92.74-1.66,1.66-1.66s1.66.74,1.66,1.66v25.74c2.98.74,5.2,3.43,5.2,6.64ZM37.87,44.03c0-1.24-1.01-2.25-2.25-2.25s-2.25,1.01-2.25,2.25,1.01,2.25,2.25,2.25,2.25-1.01,2.25-2.25Z"/>
</svg>