<?xml version="1.0" encoding="UTF-8"?>
<svg id="_4d" data-name="4d" xmlns="http://www.w3.org/2000/svg" viewBox="0 0 64.12 64.12">
  <defs>
    <style>
      .cls-1 {
        fill: #fff;
      }
    </style>
  </defs>
  <path class="cls-1" d="M54.51,27.51c.17-.59.26-1.21.26-1.83,0-3.68-2.99-6.67-6.67-6.67-.76,0-1.52.13-2.24.39-1.78-2.69-4.83-4.37-8.09-4.37-4.56,0-8.38,3.16-9.41,7.41-1.56-.87-3.32-1.36-5.15-1.36-5.87,0-10.64,4.76-10.68,10.62-4.07.78-7.1,4.34-7.1,8.61,0,4.84,3.94,8.78,8.78,8.78h24.93c4.03,0,7.3-3.28,7.3-7.3,0-.48-.05-.95-.15-1.41h5.74c3.68,0,6.67-2.99,6.67-6.67,0-2.77-1.72-5.2-4.2-6.19ZM43.83,41.79c0,2.59-2.11,4.7-4.7,4.7H14.2c-3.41,0-6.18-2.77-6.18-6.18s2.6-6.03,5.92-6.17l1.4-.06-.16-1.39c-.04-.31-.06-.62-.06-.94,0-4.45,3.62-8.08,8.08-8.08,1.46,0,2.85.4,4.05,1.1-3.23,1.04-5.53,4.05-5.53,7.6,0,4.41,3.59,8,8,8h13.89c.15.45.23.92.23,1.41ZM52.03,37.78h-22.32c-2.98,0-5.4-2.42-5.4-5.4s2.27-5.27,5.17-5.39l1.39-.06-.16-1.39c-.03-.27-.05-.55-.05-.83,0-3.91,3.18-7.09,7.09-7.09,2.74,0,5.19,1.54,6.38,4.02l.62,1.29,1.22-.74c.64-.38,1.36-.59,2.1-.59,2.25,0,4.08,1.83,4.08,4.08,0,.71-.19,1.42-.56,2.04l-.99,1.69,1.94.25c2.02.26,3.54,2,3.54,4.03,0,2.25-1.83,4.08-4.08,4.08ZM39.06,20.81c0,.72-.58,1.3-1.3,1.3-1.44,0-2.61,1.17-2.61,2.61,0,.72-.58,1.3-1.3,1.3s-1.3-.58-1.3-1.3c0-2.87,2.34-5.21,5.21-5.21.72,0,1.3.58,1.3,1.3Z"/>
</svg>