<?xml version="1.0" encoding="UTF-8"?>
<svg id="_2d" data-name="2d" xmlns="http://www.w3.org/2000/svg" viewBox="0 0 64.12 64.12">
  <defs>
    <style>
      .cls-1 {
        fill: #fff;
      }
    </style>
  </defs>
  <path class="cls-1" d="M41.15,20.56c-.72,0-1.3-.58-1.3-1.3v-4.95c0-.72.58-1.3,1.3-1.3s1.3.58,1.3,1.3v4.95c0,.72-.58,1.3-1.3,1.3ZM58.68,30.54c0-.72-.58-1.3-1.3-1.3h-4.95c-.72,0-1.3.58-1.3,1.3s.58,1.3,1.3,1.3h4.95c.72,0,1.3-.58,1.3-1.3ZM53.54,42.93c.51-.51.51-1.33,0-1.84l-3.5-3.5c-.51-.51-1.33-.51-1.84,0s-.51,1.33,0,1.84l3.5,3.5c.25.25.59.38.92.38s.67-.13.92-.38ZM34.09,23.48c.51-.51.51-1.33,0-1.84l-3.5-3.5c-.51-.51-1.33-.51-1.84,0s-.51,1.33,0,1.84l3.5,3.5c.25.25.59.38.92.38s.67-.13.92-.38ZM50.04,23.48l3.5-3.5c.51-.51.51-1.33,0-1.84s-1.33-.51-1.84,0l-3.5,3.5c-.51.51-.51,1.33,0,1.84.25.25.59.38.92.38s.67-.13.92-.38ZM34.43,25.79c.73,0,1.44.09,2.12.25,1.17-1.2,2.8-1.94,4.6-1.94,3.55,0,6.44,2.89,6.44,6.44,0,2.52-1.46,4.7-3.58,5.76.76.53,1.42,1.16,1.98,1.86,2.52-1.61,4.2-4.42,4.2-7.62,0-4.99-4.06-9.04-9.04-9.04-3.27,0-6.13,1.75-7.72,4.35.33-.04.67-.06,1-.06ZM46.01,43.87c0-3.04-1.92-5.71-4.66-6.76.21-.68.31-1.39.31-2.1,0-3.99-3.25-7.23-7.23-7.23-.86,0-1.72.16-2.52.46-1.93-3.02-5.23-4.85-8.88-4.85-5.8,0-10.53,4.7-10.57,10.5-4.03.78-7.02,4.3-7.02,8.53,0,4.79,3.9,8.7,8.7,8.7h24.64c3.99,0,7.23-3.25,7.23-7.23ZM30.2,30.5c.16.33.45.58.8.68.35.11.73.06,1.04-.13.73-.44,1.55-.67,2.39-.67,2.55,0,4.63,2.08,4.63,4.63,0,.81-.22,1.62-.63,2.33-.22.38-.24.84-.04,1.23s.57.66,1,.72c2.29.3,4.02,2.27,4.02,4.59,0,2.55-2.08,4.63-4.63,4.63H14.14c-3.36,0-6.1-2.73-6.1-6.1s2.57-5.95,5.84-6.08c.36-.01.7-.18.93-.45s.34-.63.3-.99c-.04-.31-.06-.61-.06-.93,0-4.39,3.57-7.97,7.97-7.97,3.08,0,5.83,1.73,7.17,4.51ZM19.33,34.17c0-2.38,1.94-4.33,4.33-4.33.72,0,1.3-.58,1.3-1.3s-.58-1.3-1.3-1.3c-3.82,0-6.92,3.11-6.92,6.92,0,.72.58,1.3,1.3,1.3s1.3-.58,1.3-1.3Z"/>
</svg>