<?xml version="1.0" encoding="UTF-8"?>
<svg id="_13d" data-name="13d" xmlns="http://www.w3.org/2000/svg" viewBox="0 0 64.12 64.12">
  <defs>
    <style>
      .cls-1 {
        fill: #fff;
      }
    </style>
  </defs>
  <path class="cls-1" d="M23.74,11.55c-.55-.46-.62-1.28-.16-1.83.46-.55,1.28-.62,1.83-.16l5.35,4.5v-7.47c0-.72.58-1.3,1.3-1.3s1.3.58,1.3,1.3v7.47l5.35-4.5c.55-.46,1.37-.39,1.83.16.46.55.39,1.37-.16,1.83l-7.02,5.92v9.7c-.42-.11-.85-.19-1.3-.19s-.88.08-1.3.19v-9.7l-7.02-5.92ZM36.94,30.73l8.39-4.87,8.64,3.1c.68.24,1.42-.11,1.66-.78.24-.68-.11-1.42-.78-1.66l-6.58-2.36,6.46-3.75c.62-.36.83-1.16.47-1.78-.36-.62-1.16-.83-1.78-.47l-6.46,3.75,1.21-6.89c.12-.71-.35-1.38-1.06-1.5-.7-.13-1.38.35-1.5,1.06l-1.59,9.04-8.37,4.86c.61.62,1.05,1.4,1.29,2.26ZM8.48,28.17c.24.67.98,1.03,1.66.78l8.64-3.1,8.39,4.87c.24-.86.67-1.64,1.29-2.26l-8.37-4.86-1.59-9.04c-.12-.71-.8-1.18-1.5-1.06-.71.12-1.18.8-1.06,1.5l1.21,6.89-6.46-3.75c-.62-.36-1.42-.15-1.78.47-.36.62-.15,1.42.47,1.78l6.46,3.75-6.58,2.36c-.68.24-1.03.99-.78,1.66ZM55.64,35.95c-.24-.67-.98-1.02-1.66-.78l-8.64,3.1-8.39-4.87c-.24.86-.67,1.64-1.29,2.26l8.37,4.86,1.59,9.04c.12.71.8,1.18,1.5,1.06.71-.12,1.18-.8,1.06-1.5l-1.21-6.89,6.46,3.75c.62.36,1.42.15,1.78-.47.36-.62.15-1.42-.47-1.78l-6.46-3.75,6.58-2.36c.68-.24,1.03-.99.78-1.66ZM33.36,46.66v-9.7c-.42.11-.85.19-1.3.19s-.88-.08-1.3-.19v9.7l-7.02,5.92c-.55.46-.62,1.28-.16,1.83.46.55,1.28.62,1.83.16l5.35-4.5v7.47c0,.72.58,1.3,1.3,1.3s1.3-.58,1.3-1.3v-7.47l5.35,4.5c.55.46,1.37.39,1.83-.16.46-.55.39-1.37-.16-1.83l-7.02-5.92ZM27.18,33.39l-8.39,4.87-8.64-3.1c-.68-.24-1.42.11-1.66.78-.24.68.11,1.42.78,1.66l6.58,2.36-6.46,3.75c-.62.36-.83,1.16-.47,1.78.36.62,1.15.83,1.78.47l6.46-3.75-1.21,6.89c-.12.71.35,1.38,1.06,1.5.7.13,1.38-.35,1.5-1.06l1.59-9.04,8.37-4.86c-.61-.61-1.05-1.4-1.29-2.26Z"/>
</svg>